<?xml version="1.0" encoding="UTF-8" standalone="no"?>
<!-- Created with Inkscape (http://www.inkscape.org/) -->
<svg
   xmlns:svg="http://www.w3.org/2000/svg"
   xmlns="http://www.w3.org/2000/svg"
   version="1.0"
   width="85"
   height="88"
   id="svg3172">
  <defs
     id="defs3174">
    <clipPath
       id="clipPath63">
      <path
         d="M 0.06,1190.52 L 1190.58,1190.52 L 1190.58,0 L 0.06,0 L 0.06,1190.52 z"
         id="path65" />
    </clipPath>
    <clipPath
       id="clipPath57">
      <path
         d="M -6.3,827.994 L 585,827.994 L 585,14.394 L -6.3,14.394 L -6.3,827.994 z"
         id="path59" />
    </clipPath>
    <clipPath
       id="clipPath51">
      <path
         d="M 244.908,461.442 L 323.991,461.442 L 323.991,379.722 L 244.908,379.722 L 244.908,461.442 z"
         id="path53" />
    </clipPath>
  </defs>
  <g
     transform="translate(-296.29445,-172.73091)"
     id="layer1">
    <g
       transform="matrix(1,0,0,-1,54.53795,637.37741)"
       clip-path="url(#clipPath63)"
       id="g61"
       style="fill:#000000">
      <path
         d="M 272.296,457.314 C 272.296,458.269 272.066,458.774 271.82,459.077 L 271.82,459.13 L 274.251,459.13 L 274.251,459.077 C 274.005,458.774 273.774,458.269 273.774,457.314 L 273.77,451.136 C 273.77,450.181 274.002,449.676 274.248,449.373 L 274.248,449.32 L 271.818,449.32 L 271.818,449.373 C 272.063,449.676 272.295,450.181 272.295,451.136 L 272.296,457.314"
         id="path67"
         style="fill:#000000;fill-opacity:1;fill-rule:nonzero;stroke:none" />
      <path
         d="M 281.976,445.902 C 284.03,445.902 286.537,444.237 286.537,441.033 C 286.537,437.828 284.318,436.02 281.914,436.02 C 279.511,436.02 277.415,438.115 277.415,441.012 C 277.415,443.909 279.613,445.902 281.976,445.902 z M 279.079,441.053 C 279.079,438.896 280.189,437.232 281.955,437.232 C 283.722,437.232 284.852,438.711 284.852,440.93 C 284.852,443.149 283.661,444.71 281.935,444.71 C 280.394,444.71 279.079,443.21 279.079,441.053"
         id="path69"
         style="fill:#000000;fill-opacity:1;fill-rule:nonzero;stroke:none" />
      <path
         d="M 248.427,426.31 L 249.721,429.895 L 250.892,426.31 L 248.427,426.31 z M 254.076,422.723 C 253.958,422.875 253.613,423.351 253.378,424.04 C 253.199,424.563 250.44,432.422 250.44,432.422 L 248.9,432.422 L 248.872,432.378 C 249.041,432.148 249.014,431.924 248.879,431.518 C 248.735,431.087 246.147,424.163 245.9,423.526 C 245.718,423.055 245.524,422.815 245.436,422.721 L 245.452,422.673 L 247.467,422.673 L 247.491,422.723 C 247.403,422.836 247.328,423.197 247.402,423.405 C 247.476,423.613 248.037,425.016 248.037,425.016 L 251.303,425.016 C 251.303,425.016 251.691,423.977 251.899,423.424 C 251.998,423.159 251.97,422.804 251.886,422.717 L 251.898,422.671 L 254.061,422.671 L 254.076,422.723"
         id="path71"
         style="fill:#000000;fill-opacity:1;fill-rule:nonzero;stroke:none" />
      <path
         d="M 265.563,426.31 L 266.858,429.895 L 268.029,426.31 L 265.563,426.31 z M 271.213,422.723 C 271.095,422.875 270.75,423.351 270.515,424.04 C 270.336,424.563 267.577,432.422 267.577,432.422 L 266.036,432.422 L 266.008,432.378 C 266.177,432.148 266.151,431.924 266.015,431.518 C 265.872,431.087 263.283,424.163 263.036,423.526 C 262.854,423.055 262.66,422.815 262.572,422.721 L 262.588,422.673 L 264.603,422.673 L 264.627,422.723 C 264.539,422.836 264.464,423.197 264.539,423.405 C 264.613,423.613 265.173,425.016 265.173,425.016 L 268.44,425.016 C 268.44,425.016 268.827,423.977 269.035,423.424 C 269.135,423.159 269.106,422.804 269.023,422.717 L 269.034,422.671 L 271.197,422.671 L 271.213,422.723"
         id="path73"
         style="fill:#000000;fill-opacity:1;fill-rule:nonzero;stroke:none" />
      <path
         d="M 272.354,430.661 C 272.354,431.616 272.124,432.121 271.878,432.424 L 271.878,432.477 C 271.878,432.477 274.448,432.48 274.99,432.48 C 276.158,432.48 276.99,432.302 277.491,431.874 C 277.8,431.609 278.114,431.087 278.114,430.438 C 278.114,429.719 277.975,428.848 276.819,428.261 C 277.735,427.944 278.648,427.433 278.648,425.508 C 278.648,424.932 278.487,423.971 277.722,423.407 C 276.933,422.826 276.325,422.67 274.518,422.67 C 273.409,422.67 271.876,422.67 271.876,422.67 L 271.876,422.72 C 272.121,423.023 272.353,423.523 272.353,424.479 L 272.354,430.661 z M 273.902,428.723 L 274.991,428.723 C 276.039,428.723 276.511,429.123 276.511,430.151 C 276.511,431.178 275.628,431.466 275.114,431.466 C 274.601,431.466 273.896,431.466 273.896,431.466 L 273.902,428.723 z M 273.892,423.946 L 275.361,423.946 C 276.58,423.946 277.066,424.727 277.066,425.795 C 277.066,426.92 276.248,427.377 275.128,427.377 C 275.146,427.377 273.892,427.377 273.892,427.377 L 273.892,423.946"
         id="path75"
         style="fill:#000000;fill-opacity:1;fill-rule:nonzero;stroke:none" />
      <path
         d="M 246.169,457.314 C 246.169,458.269 245.939,458.774 245.694,459.077 L 245.694,459.13 L 248.124,459.13 L 248.124,459.077 C 247.878,458.774 247.647,458.269 247.647,457.314 L 247.644,451.136 C 247.644,450.181 247.876,449.676 248.122,449.373 L 248.122,449.32 L 245.691,449.32 L 245.691,449.373 C 245.937,449.676 246.169,450.181 246.169,451.136 L 246.169,457.314"
         id="path77"
         style="fill:#000000;fill-opacity:1;fill-rule:nonzero;stroke:none" />
      <path
         d="M 287.681,445.886 L 289.599,445.886 L 293.831,440.346 L 293.829,443.933 C 293.829,445.035 293.614,445.541 293.368,445.844 L 293.368,445.896 L 295.799,445.896 L 295.799,445.843 C 295.553,445.541 295.321,445.035 295.321,444.08 L 295.321,435.887 L 295.228,435.885 L 289.609,443.328 L 289.611,437.901 C 289.611,436.946 289.826,436.441 290.072,436.138 L 290.072,436.085 L 287.641,436.085 L 287.641,436.138 C 287.887,436.441 288.119,436.946 288.119,437.901 L 288.12,444.107 C 288.12,445.044 287.78,445.652 287.665,445.831 L 287.681,445.886"
         id="path79"
         style="fill:#000000;fill-opacity:1;fill-rule:nonzero;stroke:none" />
      <path
         d="M 258.697,451.029 L 258.697,449.467 C 258.697,449.467 259.035,449.531 259.262,449.499 C 259.568,449.455 260.035,449.291 260.959,449.291 C 262.299,449.291 262.881,449.516 263.495,450.063 C 264.112,450.613 264.287,451.61 264.287,452.042 C 264.287,452.473 264.139,453.758 262.315,454.904 C 260.422,456.094 260.395,456.685 260.395,457.083 C 260.395,457.644 260.795,457.959 261.904,457.959 C 262.85,457.959 263.549,457.556 263.735,457.437 L 263.784,457.456 L 263.784,459.15 C 263.784,459.15 263.527,459.068 263.219,459.068 C 262.911,459.068 262.582,459.212 261.658,459.212 C 260.307,459.212 258.802,458.678 258.802,457.157 C 258.802,455.637 259.884,454.778 260.856,454.082 C 261.826,453.389 262.689,452.935 262.689,451.888 C 262.689,451.23 262.192,450.482 261,450.482 C 260.024,450.482 258.982,450.975 258.747,451.064 L 258.697,451.029"
         id="path81"
         style="fill:#000000;fill-opacity:1;fill-rule:nonzero;stroke:none" />
      <path
         d="M 271.016,457.804 L 270.841,459.13 L 264.842,459.13 L 264.706,457.768 L 264.759,457.735 C 264.889,457.816 265.219,457.992 265.662,457.992 L 267.102,457.992 L 267.105,451.136 C 267.105,450.181 266.873,449.676 266.627,449.373 L 266.627,449.32 L 269.058,449.32 L 269.058,449.373 C 268.812,449.676 268.58,450.181 268.58,451.136 L 268.581,457.992 C 268.581,457.992 269.506,457.992 270.019,457.992 C 270.55,457.992 270.855,457.843 270.971,457.772 L 271.016,457.804"
         id="path83"
         style="fill:#000000;fill-opacity:1;fill-rule:nonzero;stroke:none" />
      <path
         d="M 281.44,457.804 L 281.265,459.13 L 275.266,459.13 L 275.13,457.768 L 275.183,457.735 C 275.313,457.816 275.643,457.992 276.086,457.992 L 277.526,457.992 L 277.529,451.136 C 277.529,450.181 277.297,449.676 277.051,449.373 L 277.051,449.32 L 279.482,449.32 L 279.482,449.373 C 279.236,449.676 279.004,450.181 279.004,451.136 L 279.005,457.992 C 279.005,457.992 279.93,457.992 280.443,457.992 C 280.974,457.992 281.279,457.843 281.395,457.772 L 281.44,457.804"
         id="path85"
         style="fill:#000000;fill-opacity:1;fill-rule:nonzero;stroke:none" />
      <path
         d="M 297.249,457.804 L 297.074,459.13 L 291.075,459.13 L 290.939,457.768 L 290.992,457.735 C 291.122,457.816 291.452,457.992 291.895,457.992 L 293.335,457.992 L 293.338,451.136 C 293.338,450.181 293.106,449.676 292.86,449.373 L 292.86,449.32 L 295.291,449.32 L 295.291,449.373 C 295.045,449.676 294.814,450.181 294.814,451.136 L 294.814,457.992 C 294.814,457.992 295.738,457.992 296.252,457.992 C 296.783,457.992 297.088,457.843 297.204,457.772 L 297.249,457.804"
         id="path87"
         style="fill:#000000;fill-opacity:1;fill-rule:nonzero;stroke:none" />
      <path
         d="M 289.801,457.306 C 289.801,458.261 290.04,458.767 290.286,459.07 L 290.286,459.122 L 287.815,459.122 L 287.815,459.07 C 288.061,458.767 288.293,458.261 288.293,457.306 L 288.293,452.197 C 288.293,451.684 288.057,450.677 286.29,450.677 C 284.523,450.677 284.307,451.758 284.307,452.395 L 284.307,457.309 C 284.307,458.264 284.538,458.769 284.784,459.072 L 284.784,459.125 L 282.353,459.125 L 282.353,459.072 C 282.599,458.769 282.838,458.264 282.838,457.309 L 282.839,451.882 C 282.839,450.937 283.414,449.273 286.27,449.273 C 289.125,449.273 289.803,450.978 289.803,451.964 L 289.801,457.306"
         id="path89"
         style="fill:#000000;fill-opacity:1;fill-rule:nonzero;stroke:none" />
      <path
         d="M 247.698,444.512 L 247.698,437.405 C 247.698,437.405 248.18,437.405 248.735,437.405 C 249.496,437.405 250.256,437.512 250.852,437.903 C 251.447,438.293 252.063,438.923 252.063,440.968 C 252.063,443.084 251.361,443.837 250.442,444.265 C 249.865,444.533 249.228,444.512 248.817,444.512 C 248.785,444.512 247.698,444.512 247.698,444.512 z M 245.717,436.074 L 245.717,436.127 C 245.963,436.43 246.195,436.935 246.195,437.89 L 246.195,444.068 C 246.195,445.022 245.965,445.528 245.72,445.831 L 245.72,445.883 C 245.72,445.883 247.567,445.879 248.368,445.879 C 249.871,445.879 250.796,445.798 251.67,445.352 C 252.399,444.98 253.727,444.05 253.727,440.968 C 253.727,437.887 252.318,437.055 251.777,436.738 C 251.039,436.306 250.072,436.074 248.285,436.074 C 246.498,436.074 245.717,436.074 245.717,436.074"
         id="path91"
         style="fill:#000000;fill-opacity:1;fill-rule:nonzero;stroke:none" />
      <path
         d="M 299.173,444.512 L 299.173,437.405 C 299.173,437.405 299.655,437.405 300.21,437.405 C 300.971,437.405 301.731,437.512 302.326,437.903 C 302.922,438.293 303.537,438.923 303.537,440.968 C 303.537,443.084 302.836,443.837 301.917,444.265 C 301.34,444.533 300.702,444.512 300.292,444.512 C 300.26,444.512 299.173,444.512 299.173,444.512 z M 297.67,444.068 C 297.67,445.022 297.44,445.528 297.194,445.831 L 297.194,445.883 C 297.194,445.883 299.041,445.879 299.843,445.879 C 301.346,445.879 302.271,445.798 303.145,445.352 C 303.874,444.98 305.202,444.05 305.202,440.968 C 305.202,437.887 303.792,437.055 303.251,436.738 C 302.514,436.306 301.547,436.074 299.76,436.074 C 297.973,436.074 297.192,436.074 297.192,436.074 L 297.192,436.127 C 297.438,436.43 297.67,436.935 297.67,437.89 L 297.67,444.068"
         id="path93"
         style="fill:#000000;fill-opacity:1;fill-rule:nonzero;stroke:none" />
      <path
         d="M 262.018,444.069 C 262.018,445.024 262.257,445.53 262.502,445.833 L 262.502,445.885 L 260.031,445.885 L 260.031,445.833 C 260.277,445.53 260.509,445.024 260.509,444.069 L 260.51,438.91 C 260.51,438.396 260.274,437.389 258.507,437.389 C 256.74,437.389 256.524,438.47 256.524,439.107 L 256.522,444.072 C 256.522,445.027 256.754,445.532 257,445.835 L 257,445.887 L 254.569,445.888 L 254.569,445.835 C 254.815,445.532 255.054,445.027 255.054,444.072 L 255.055,438.645 C 255.055,437.7 255.631,436.036 258.486,436.036 C 261.342,436.036 262.02,437.741 262.02,438.727 L 262.018,444.069"
         id="path95"
         style="fill:#000000;fill-opacity:1;fill-rule:nonzero;stroke:none" />
      <path
         d="M 276.628,437.195 C 276.793,436.502 276.997,436.259 277.111,436.136 L 277.09,436.075 L 275.129,436.075 L 275.104,436.142 C 275.189,436.263 275.241,436.754 275.177,437.07 C 275.139,437.264 274.128,442.631 274.128,442.631 L 271.34,436.038 L 271.279,436.038 L 268.509,442.57 C 268.509,442.57 267.458,437.18 267.431,437.045 C 267.368,436.729 267.433,436.266 267.518,436.145 L 267.493,436.078 L 265.469,436.078 L 265.448,436.139 C 265.562,436.262 265.733,436.514 265.931,437.198 C 266.152,437.961 267.326,444.381 267.394,444.729 C 267.493,445.24 267.365,445.737 267.294,445.85 L 267.322,445.888 L 268.951,445.888 L 271.313,439.909 L 273.738,445.888 L 275.239,445.888 L 275.264,445.837 C 275.183,445.688 275.103,445.202 275.227,444.58 C 275.354,443.944 276.525,437.626 276.628,437.195"
         id="path97"
         style="fill:#000000;fill-opacity:1;fill-rule:nonzero;stroke:none" />
      <path
         d="M 280.258,430.664 C 280.258,431.619 280.028,432.124 279.783,432.427 L 279.782,432.48 L 285.137,432.48 L 285.137,430.983 L 285.075,430.956 C 284.938,431.078 284.581,431.349 284.12,431.349 C 283.524,431.349 281.716,431.349 281.716,431.349 L 281.716,428.283 C 281.716,428.283 283.563,428.283 283.831,428.283 C 284.199,428.283 284.588,428.489 284.708,428.558 L 284.746,428.54 L 284.746,426.695 L 284.716,426.674 C 284.614,426.751 284.271,426.988 283.872,426.988 C 283.646,426.988 281.736,426.988 281.736,426.988 L 281.736,423.824 C 281.736,423.824 283.503,423.824 283.935,423.824 C 284.568,423.824 284.972,424.156 285.101,424.281 L 285.147,424.265 L 285.147,422.67 L 279.78,422.67 L 279.78,422.723 C 280.026,423.026 280.258,423.526 280.258,424.481 L 280.258,430.664"
         id="path99"
         style="fill:#000000;fill-opacity:1;fill-rule:nonzero;stroke:none" />
      <path
         d="M 255.453,430.664 C 255.453,431.619 255.225,432.124 254.979,432.427 L 254.979,432.48 C 254.979,432.48 257.425,432.48 257.939,432.48 C 259.106,432.48 259.932,432.183 260.384,431.875 C 260.836,431.567 261.452,430.869 261.452,429.883 C 261.452,428.639 261.157,427.713 259.726,427.069 C 259.726,427.069 261.534,423.679 261.678,423.412 C 261.798,423.19 262.031,422.868 262.177,422.731 L 262.157,422.672 C 261.864,422.672 261.486,422.672 261.214,422.672 C 260.135,422.672 259.72,423.533 259.471,423.994 C 259.318,424.276 257.59,427.726 257.59,427.726 C 257.59,427.726 258.471,427.697 259.106,428.078 C 259.643,428.4 259.829,428.877 259.829,429.575 C 259.829,430.274 259.542,430.625 259.336,430.789 C 259.131,430.954 258.676,431.178 257.857,431.178 C 257.302,431.178 256.921,431.178 256.921,431.178 L 256.921,424.486 C 256.921,423.531 257.159,423.026 257.405,422.723 L 257.405,422.67 L 254.975,422.67 L 254.975,422.723 C 255.22,423.026 255.452,423.531 255.452,424.486 L 255.453,430.664"
         id="path101"
         style="fill:#000000;fill-opacity:1;fill-rule:nonzero;stroke:none" />
      <path
         d="M 278.404,395.8 L 281.667,395.8 L 281.668,405.479 L 278.404,405.479 L 278.404,395.8"
         id="path103"
         style="fill:#000000;fill-opacity:1;fill-rule:nonzero;stroke:none" />
      <path
         d="M 256.259,405.479 L 256.259,399.039 L 255.02,399.039 L 255.02,404.252 C 248.138,404.252 248.015,399.039 248.015,399.039 L 245.308,399.039 L 245.308,395.8 L 259.309,395.8 L 259.309,405.479 L 256.259,405.479 z M 251.107,399.044 C 251.107,399.044 251.154,400.506 252.254,400.601 L 252.254,399.044 L 251.107,399.044"
         id="path105"
         style="fill:#000000;fill-opacity:1;fill-rule:nonzero;stroke:none" />
      <path
         d="M 248.304,392.191 L 280.917,392.191 L 278.761,389.083 L 249.021,389.083 C 248.066,389.083 248.073,387.925 248.962,387.925 C 248.993,387.925 282.153,387.925 282.153,387.925 C 282.153,387.925 281.999,389.584 283.575,391.171 C 284.097,391.697 286.728,394.077 286.728,394.077 C 286.728,394.108 291.308,387.935 291.308,387.935 L 292.606,387.935 L 290.234,391.127 L 292.029,393.626 L 298.595,384.807 L 289.598,384.807 L 285.492,390.305 C 285.213,390.673 284.764,390.269 284.668,390.06 C 284.514,389.726 284.224,389.038 285.832,387.894 C 287.177,386.937 287.889,385.784 287.258,384.807 L 245.308,384.807 L 245.308,389.533 C 245.617,392.253 248.304,392.191 248.304,392.191"
         id="path107"
         style="fill:#000000;fill-opacity:1;fill-rule:nonzero;stroke:none" />
      <path
         d="M 274.018,405.479 L 274.018,399.056 L 271.427,399.054 C 271.427,399.054 272.808,400.58 272.828,403.795 L 264.832,403.795 C 264.832,400.581 266.233,399.054 266.233,399.054 L 263.595,399.054 L 263.595,405.479 L 260.499,405.479 L 260.499,395.8 L 277.375,395.8 L 277.375,405.479 L 274.018,405.479 z M 268.083,401.707 L 269.526,401.707 C 269.525,400.165 268.083,400.2 268.083,401.707"
         id="path109"
         style="fill:#000000;fill-opacity:1;fill-rule:nonzero;stroke:none" />
      <path
         d="M 319.851,461.435 L 323.205,461.435 L 323.205,384.807 L 319.851,384.807 L 319.851,461.435 z"
         id="path111"
         style="fill:#000000;fill-opacity:1;fill-rule:nonzero;stroke:none" />
      <path
         d="M 265.56,379.869 C 266.483,379.869 267.231,380.617 267.231,381.54 C 267.231,382.462 266.483,383.21 265.56,383.21 C 264.638,383.21 263.89,382.462 263.89,381.54 C 263.89,380.617 264.638,379.869 265.56,379.869"
         id="path113"
         style="fill:#000000;fill-opacity:1;fill-rule:nonzero;stroke:none" />
      <path
         d="M 271.604,379.869 C 272.527,379.869 273.275,380.617 273.275,381.54 C 273.275,382.462 272.527,383.21 271.604,383.21 C 270.681,383.21 269.933,382.462 269.933,381.54 C 269.933,380.617 270.681,379.869 271.604,379.869"
         id="path115"
         style="fill:#000000;fill-opacity:1;fill-rule:nonzero;stroke:none" />
      <path
         d="M 292.142,379.858 C 293.065,379.858 293.813,380.606 293.813,381.528 C 293.813,382.451 293.065,383.199 292.142,383.199 C 291.22,383.199 290.472,382.451 290.472,381.528 C 290.472,380.606 291.22,379.858 292.142,379.858"
         id="path117"
         style="fill:#000000;fill-opacity:1;fill-rule:nonzero;stroke:none" />
      <path
         d="M 306.378,399.045 L 304.895,399.045 C 304.895,399.045 306.251,400.586 306.285,403.795 L 298.371,403.795 C 298.371,400.544 299.795,399.045 299.795,399.045 L 296.58,399.045 C 296.58,399.045 296.164,398.496 296.232,397.989 C 296.342,397.169 296.796,396.63 297.731,395.898 C 298.981,394.922 299.757,394.217 298.671,393.077 L 294.21,399.056 L 291.597,399.05 L 288.235,403.795 L 284.35,403.795 L 287.758,399.045 L 282.679,399.045 L 282.679,395.8 L 292.282,395.8 L 296.868,389.696 C 296.868,389.696 299.66,391.882 300.484,392.706 C 301.309,393.531 302.297,394.733 301.813,395.808 L 313.423,395.808 L 313.423,404.259 C 306.932,404.259 306.378,399.045 306.378,399.045 z M 301.599,401.694 C 301.599,401.694 303.042,401.711 303.042,401.694 C 303.041,400.151 301.599,400.189 301.599,401.694 z M 309.681,399.038 C 309.681,399.038 309.709,400.419 310.826,400.579 L 310.826,399.038 L 309.681,399.038"
         id="path119"
         style="fill:#000000;fill-opacity:1;fill-rule:nonzero;stroke:none" />
      <path
         d="M 315.384,461.435 L 315.384,387.94 L 312.046,387.94 C 312.046,387.94 313.423,389.628 313.437,392.871 L 305.461,392.871 C 305.479,389.628 307.036,387.94 307.036,387.94 L 302.214,387.94 L 300.253,390.514 L 297.709,388.469 L 300.232,384.807 L 295.323,379.904 L 298.186,379.904 L 303.089,384.807 L 318.681,384.807 L 318.681,461.435 L 315.384,461.435 z M 308.87,390.766 C 308.87,390.766 310.312,390.783 310.312,390.766 C 310.312,389.223 308.87,389.25 308.87,390.766"
         id="path121"
         style="fill:#000000;fill-opacity:1;fill-rule:nonzero;stroke:none" />
      <path
         d="M 306.728,444.083 C 306.728,445.038 306.498,445.543 306.253,445.846 L 306.252,445.899 L 311.607,445.899 L 311.607,444.402 L 311.545,444.375 C 311.408,444.497 311.051,444.769 310.59,444.769 C 309.994,444.769 308.186,444.769 308.186,444.769 L 308.186,441.702 C 308.186,441.702 309.897,441.702 310.164,441.702 C 310.743,441.702 311.066,441.827 311.178,441.921 L 311.216,441.903 L 311.216,440.171 L 311.186,440.149 C 311.029,440.258 310.743,440.408 310.205,440.408 C 309.979,440.408 308.207,440.408 308.207,440.408 L 308.207,437.243 C 308.207,437.243 309.973,437.243 310.405,437.243 C 311.039,437.243 311.442,437.575 311.572,437.7 L 311.617,437.684 L 311.617,436.089 L 306.25,436.089 L 306.25,436.142 C 306.496,436.445 306.728,436.945 306.728,437.9 L 306.728,444.083"
         id="path123"
         style="fill:#000000;fill-opacity:1;fill-rule:nonzero;stroke:none" />
      <path
         d="M 249.531,459.115 L 251.449,459.115 L 255.681,453.574 L 255.679,457.162 C 255.679,458.264 255.464,458.77 255.218,459.072 L 255.218,459.125 L 257.649,459.125 L 257.649,459.072 C 257.403,458.769 257.171,458.264 257.171,457.309 L 257.171,449.116 L 257.078,449.114 L 251.459,456.557 L 251.461,451.13 C 251.461,450.175 251.676,449.67 251.922,449.367 L 251.922,449.314 L 249.491,449.314 L 249.491,449.367 C 249.737,449.67 249.969,450.175 249.969,451.13 L 249.97,457.335 C 249.97,458.273 249.63,458.881 249.515,459.06 L 249.531,459.115"
         id="path125"
         style="fill:#000000;fill-opacity:1;fill-rule:nonzero;stroke:none" />
    </g>
  </g>
</svg>
